<svg width="50" height="50" viewBox="0 0 50 50" fill="none" xmlns="http://www.w3.org/2000/svg">
<circle cx="25" cy="25" r="24" stroke="black" stroke-width="2"/>
<path d="M42.5532 41.4893C39.1844 40.7801 32.6595 40.0161 31.3829 38.314C29.7871 36.1863 29.7871 34.0587 31.3829 30.8672C32.9786 27.6757 34.5744 24.4842 34.0425 21.2927C33.5105 18.1012 34.0425 18.1012 34.0425 17.0374C34.0425 15.9736 34.5744 7.99485 24.9999 7.46294C15.4254 6.93102 15.4255 19.6969 15.9574 21.2927C16.4893 22.8884 14.8936 25.548 19.1489 32.9948C20.2127 34.2359 21.0637 37.2501 15.9574 39.3778C10.851 41.5054 8.156 41.8439 7.44678 42.0212" stroke="black" stroke-width="2"/>
</svg>
