<svg width="81" height="68" viewBox="0 0 81 68" fill="none" xmlns="http://www.w3.org/2000/svg">
<path fill-rule="evenodd" clip-rule="evenodd" d="M2 21H47V66H2V21ZM0 19H2H47H49V21V66V68H47H2H0V66V21V19ZM13 39.5V30H16V28H13H11H9V30H11V39.5C11 46.9558 17.0442 53 24.5 53C31.9558 53 38 46.9558 38 39.5V30H40V28H38H36H33V30H36V39.5C36 45.8513 30.8513 51 24.5 51C18.1487 51 13 45.8513 13 39.5Z" fill="black"/>
<g filter="url(#filter0_d_143_10)">
<circle cx="58" cy="19" r="19" fill="white"/>
</g>
<path d="M57.1875 27.2287C55.9569 27.2287 54.9087 26.8938 54.043 26.2241C53.1772 25.5489 52.5156 24.5715 52.0582 23.2919C51.6009 22.0069 51.3722 20.455 51.3722 18.6364C51.3722 16.8286 51.6009 15.2849 52.0582 14.0053C52.5211 12.7203 53.1854 11.7402 54.0511 11.065C54.9223 10.3844 55.9678 10.044 57.1875 10.044C58.4072 10.044 59.4499 10.3844 60.3157 11.065C61.1869 11.7402 61.8512 12.7203 62.3086 14.0053C62.7714 15.2849 63.0028 16.8286 63.0028 18.6364C63.0028 20.455 62.7741 22.0069 62.3168 23.2919C61.8594 24.5715 61.1978 25.5489 60.332 26.2241C59.4663 26.8938 58.4181 27.2287 57.1875 27.2287ZM57.1875 25.4318C58.4072 25.4318 59.3546 24.8437 60.0298 23.6676C60.705 22.4915 61.0426 20.8144 61.0426 18.6364C61.0426 17.188 60.8874 15.9547 60.5771 14.9364C60.2721 13.9182 59.8311 13.1423 59.2539 12.6087C58.6822 12.075 57.9934 11.8082 57.1875 11.8082C55.9787 11.8082 55.034 12.4045 54.3533 13.5969C53.6727 14.784 53.3324 16.4638 53.3324 18.6364C53.3324 20.0848 53.4848 21.3153 53.7898 22.3281C54.0947 23.3409 54.533 24.1114 55.1048 24.6396C55.6819 25.1677 56.3762 25.4318 57.1875 25.4318Z" fill="black"/>
<defs>
<filter id="filter0_d_143_10" x="35" y="0" width="46" height="46" filterUnits="userSpaceOnUse" color-interpolation-filters="sRGB">
<feFlood flood-opacity="0" result="BackgroundImageFix"/>
<feColorMatrix in="SourceAlpha" type="matrix" values="0 0 0 0 0 0 0 0 0 0 0 0 0 0 0 0 0 0 127 0" result="hardAlpha"/>
<feOffset dy="4"/>
<feGaussianBlur stdDeviation="2"/>
<feComposite in2="hardAlpha" operator="out"/>
<feColorMatrix type="matrix" values="0 0 0 0 0 0 0 0 0 0 0 0 0 0 0 0 0 0 0.25 0"/>
<feBlend mode="normal" in2="BackgroundImageFix" result="effect1_dropShadow_143_10"/>
<feBlend mode="normal" in="SourceGraphic" in2="effect1_dropShadow_143_10" result="shape"/>
</filter>
</defs>
</svg>
