<svg width="78" height="71" viewBox="0 0 78 71" fill="none" xmlns="http://www.w3.org/2000/svg">
<path d="M54.1293 24.436C42.8473 13.6053 32.8815 21.4275 29.3089 26.6924C19.832 14.5078 8.81322 20.1113 4.48845 24.436C-1.82947 31.6565 1.85598 40.983 4.48845 44.7437L29.3089 69L54.1293 44.7437C60.4472 36.1694 56.7617 27.6326 54.1293 24.436Z" stroke="black" stroke-width="2"/>
<path d="M54.1293 24.436C42.8473 13.6053 32.8815 21.4275 29.3089 26.6924C19.832 14.5078 8.81322 20.1113 4.48845 24.436C-1.82947 31.6565 1.85598 40.983 4.48845 44.7437L29.3089 69L54.1293 44.7437C60.4472 36.1694 56.7617 27.6326 54.1293 24.436Z" stroke="black" stroke-width="2"/>
<g filter="url(#filter0_d_126_29)">
<circle cx="55" cy="19" r="19" fill="white"/>
</g>
<path d="M54.1875 27.2287C52.9569 27.2287 51.9087 26.8938 51.043 26.2241C50.1772 25.5489 49.5156 24.5715 49.0582 23.2919C48.6009 22.0069 48.3722 20.455 48.3722 18.6364C48.3722 16.8286 48.6009 15.2849 49.0582 14.0053C49.5211 12.7203 50.1854 11.7402 51.0511 11.065C51.9223 10.3844 52.9678 10.044 54.1875 10.044C55.4072 10.044 56.4499 10.3844 57.3157 11.065C58.1869 11.7402 58.8512 12.7203 59.3086 14.0053C59.7714 15.2849 60.0028 16.8286 60.0028 18.6364C60.0028 20.455 59.7741 22.0069 59.3168 23.2919C58.8594 24.5715 58.1978 25.5489 57.332 26.2241C56.4663 26.8938 55.4181 27.2287 54.1875 27.2287ZM54.1875 25.4318C55.4072 25.4318 56.3546 24.8437 57.0298 23.6676C57.705 22.4915 58.0426 20.8144 58.0426 18.6364C58.0426 17.188 57.8874 15.9547 57.5771 14.9364C57.2721 13.9182 56.8311 13.1423 56.2539 12.6087C55.6822 12.075 54.9934 11.8082 54.1875 11.8082C52.9787 11.8082 52.034 12.4045 51.3533 13.5969C50.6727 14.784 50.3324 16.4638 50.3324 18.6364C50.3324 20.0848 50.4848 21.3153 50.7898 22.3281C51.0947 23.3409 51.533 24.1114 52.1048 24.6396C52.6819 25.1677 53.3762 25.4318 54.1875 25.4318Z" fill="black"/>
<g filter="url(#filter1_d_126_29)">
<circle cx="55" cy="19" r="19" fill="white"/>
</g>
<path d="M54.1875 27.2287C52.9569 27.2287 51.9087 26.8938 51.043 26.2241C50.1772 25.5489 49.5156 24.5715 49.0582 23.2919C48.6009 22.0069 48.3722 20.455 48.3722 18.6364C48.3722 16.8286 48.6009 15.2849 49.0582 14.0053C49.5211 12.7203 50.1854 11.7402 51.0511 11.065C51.9223 10.3844 52.9678 10.044 54.1875 10.044C55.4072 10.044 56.4499 10.3844 57.3157 11.065C58.1869 11.7402 58.8512 12.7203 59.3086 14.0053C59.7714 15.2849 60.0028 16.8286 60.0028 18.6364C60.0028 20.455 59.7741 22.0069 59.3168 23.2919C58.8594 24.5715 58.1978 25.5489 57.332 26.2241C56.4663 26.8938 55.4181 27.2287 54.1875 27.2287ZM54.1875 25.4318C55.4072 25.4318 56.3546 24.8437 57.0298 23.6676C57.705 22.4915 58.0426 20.8144 58.0426 18.6364C58.0426 17.188 57.8874 15.9547 57.5771 14.9364C57.2721 13.9182 56.8311 13.1423 56.2539 12.6087C55.6822 12.075 54.9934 11.8082 54.1875 11.8082C52.9787 11.8082 52.034 12.4045 51.3533 13.5969C50.6727 14.784 50.3324 16.4638 50.3324 18.6364C50.3324 20.0848 50.4848 21.3153 50.7898 22.3281C51.0947 23.3409 51.533 24.1114 52.1048 24.6396C52.6819 25.1677 53.3762 25.4318 54.1875 25.4318Z" fill="black"/>
<defs>
<filter id="filter0_d_126_29" x="32" y="0" width="46" height="46" filterUnits="userSpaceOnUse" color-interpolation-filters="sRGB">
<feFlood flood-opacity="0" result="BackgroundImageFix"/>
<feColorMatrix in="SourceAlpha" type="matrix" values="0 0 0 0 0 0 0 0 0 0 0 0 0 0 0 0 0 0 127 0" result="hardAlpha"/>
<feOffset dy="4"/>
<feGaussianBlur stdDeviation="2"/>
<feComposite in2="hardAlpha" operator="out"/>
<feColorMatrix type="matrix" values="0 0 0 0 0 0 0 0 0 0 0 0 0 0 0 0 0 0 0.25 0"/>
<feBlend mode="normal" in2="BackgroundImageFix" result="effect1_dropShadow_126_29"/>
<feBlend mode="normal" in="SourceGraphic" in2="effect1_dropShadow_126_29" result="shape"/>
</filter>
<filter id="filter1_d_126_29" x="32" y="0" width="46" height="46" filterUnits="userSpaceOnUse" color-interpolation-filters="sRGB">
<feFlood flood-opacity="0" result="BackgroundImageFix"/>
<feColorMatrix in="SourceAlpha" type="matrix" values="0 0 0 0 0 0 0 0 0 0 0 0 0 0 0 0 0 0 127 0" result="hardAlpha"/>
<feOffset dy="4"/>
<feGaussianBlur stdDeviation="2"/>
<feComposite in2="hardAlpha" operator="out"/>
<feColorMatrix type="matrix" values="0 0 0 0 0 0 0 0 0 0 0 0 0 0 0 0 0 0 0.25 0"/>
<feBlend mode="normal" in2="BackgroundImageFix" result="effect1_dropShadow_126_29"/>
<feBlend mode="normal" in="SourceGraphic" in2="effect1_dropShadow_126_29" result="shape"/>
</filter>
</defs>
</svg>
